<svg width="64" height="64" viewBox="0 0 64 64" fill="none" xmlns="http://www.w3.org/2000/svg">
<path d="M32 57.3333C28.4 55.0667 21.8666 53.3333 17.3333 53.3333C12.9333 53.3333 8.39996 54.1333 4.66663 56.1333C4.39996 56.2667 4.26663 56.2667 3.99996 56.2667C3.33329 56.2667 2.66663 55.6 2.66663 54.9333V16C4.26663 14.8 5.99996 14 7.99996 13.3333C10.96 12.4 14.2133 12 17.3333 12C22.5333 12 28.1333 13.0667 32 16C35.8666 13.0667 41.4666 12 46.6666 12C49.7866 12 53.04 12.4 56 13.3333C58 14 59.7333 14.8 61.3333 16V54.9333C61.3333 55.6 60.6666 56.2667 60 56.2667C59.7333 56.2667 59.6 56.2667 59.3333 56.1333C55.6 54.1333 51.0666 53.3333 46.6666 53.3333C42.1333 53.3333 35.6 55.0667 32 57.3333ZM29.3333 20C25.7066 18.4 20.9066 17.3333 17.3333 17.3333C14.1333 17.3333 10.9333 17.7333 7.99996 18.6667V49.3333C10.9333 48.4 14.1333 48 17.3333 48C20.9066 48 25.7066 49.0667 29.3333 50.6667V20ZM34.6666 50.6667C38.2933 49.0667 43.0933 48 46.6666 48C49.8666 48 53.0666 48.4 56 49.3333V18.6667C53.0666 17.7333 49.8666 17.3333 46.6666 17.3333C43.0933 17.3333 38.2933 18.4 34.6666 20V50.6667ZM37.3333 43.6C39.8933 42.6667 42.9866 42.2133 46.6666 42.2133C49.44 42.2133 51.68 42.4267 53.3333 42.8533V38.8533C51.0133 38.4267 48.7733 38.2133 46.6666 38.2133C43.0933 38.2133 40 38.6667 37.3333 39.36V43.6ZM37.3333 36.5067C39.8933 35.5733 42.9866 35.0933 46.6666 35.0933C49.44 35.0933 51.68 35.3067 53.3333 35.7333V31.7333C51.0133 31.3067 48.7733 31.12 46.6666 31.12C43.2533 31.12 40.1333 31.52 37.3333 32.32V36.5067ZM37.3333 29.3333C39.8933 28.4533 42.9866 28 46.6666 28C49.0933 28 51.36 28.24 53.3333 28.7467V24.6133C51.0133 24.2133 48.7733 24 46.6666 24C43.1466 24 40 24.4 37.3333 25.2267V29.3333Z" fill="black"/>
</svg>
